<svg width="56" height="56" viewBox="0 0 56 56" fill="none" xmlns="http://www.w3.org/2000/svg">
<g clip-path="url(#clip0_0_340)">
<rect x="0.5" y="0.5" width="55" height="55" rx="27.5" stroke="#584D62"/>
<path d="M24.3752 21.04C24.3192 21.04 24.2792 21.028 24.2552 21.004C24.2392 20.98 24.2312 20.952 24.2312 20.92C24.2312 20.896 24.2432 20.876 24.2672 20.86C24.2912 20.836 24.3272 20.824 24.3752 20.824L26.0432 20.788C26.9952 20.788 27.7272 20.72 28.2392 20.584C28.7592 20.448 29.1672 20.168 29.4632 19.744C29.4952 19.688 29.5232 19.648 29.5472 19.624C29.5792 19.592 29.6112 19.576 29.6432 19.576C29.7312 19.576 29.7752 19.636 29.7752 19.756V35.8C29.7752 36.024 29.8272 36.2 29.9312 36.328C30.0432 36.448 30.1912 36.528 30.3752 36.568L31.8752 36.808C31.9712 36.832 32.0192 36.864 32.0192 36.904C32.0192 36.936 32.0072 36.96 31.9832 36.976C31.9592 36.992 31.9232 37 31.8752 37H24.2552C24.2072 37 24.1672 36.992 24.1352 36.976C24.1112 36.952 24.0992 36.924 24.0992 36.892C24.0992 36.852 24.1552 36.82 24.2672 36.796L25.7312 36.568C25.9312 36.52 26.0952 36.44 26.2232 36.328C26.3512 36.216 26.4152 36.044 26.4152 35.812V21.508C26.4152 21.356 26.3832 21.244 26.3192 21.172C26.2552 21.1 26.1672 21.064 26.0552 21.064L24.3752 21.04Z" fill="#24053E"/>
</g>
<defs>
<clipPath id="clip0_0_340">
<rect width="56" height="56" fill="white"/>
</clipPath>
</defs>
</svg>
